HIERARCHY
	ROOT pelvis
	{
		OFFSET 0 0 0 
		CHANNELS 6 Xposition Yposition Zposition Zrotation Xrotation Yrotation
		JOINT lfemur_phantom
		{
			OFFSET 0 0.0899607 0 
			CHANNELS 3 Zrotation Xrotation Yrotation
			JOINT lfemur
			{
				OFFSET 0 0 -0.426035 
				CHANNELS 3 Zrotation Xrotation Yrotation
				JOINT ltibia
				{
					OFFSET 0 0 -0.409933 
					CHANNELS 3 Zrotation Xrotation Yrotation
					JOINT lfoot
					{
						OFFSET 0.105631 0 0.00135511 
						CHANNELS 3 Zrotation Xrotation Yrotation
						End Site
						{
							OFFSET 0.0352103 0 0.000451703
						}
					}
				}
			}
		}
		JOINT rfemur_phantom
		{
			OFFSET 0 -0.0899607 0 
			CHANNELS 3 Zrotation Xrotation Yrotation
			JOINT rfemur
			{
				OFFSET 0 0 -0.430137 
				CHANNELS 3 Zrotation Xrotation Yrotation
				JOINT rtibia
				{
					OFFSET 0 0 -0.390377 
					CHANNELS 3 Zrotation Xrotation Yrotation
					JOINT rfoot
					{
						OFFSET 0.106801 0 -0.00121178 
						CHANNELS 3 Zrotation Xrotation Yrotation
						End Site
						{
							OFFSET 0.0356003 0 -0.000403927
						}
					}
				}
			}
		}
		JOINT lowerback_phantom
		{
			OFFSET -0.05 0 0.107967 
			CHANNELS 3 Zrotation Xrotation Yrotation
			JOINT lowerback
			{
				OFFSET 0.0167886 0 0.161801 
				CHANNELS 3 Zrotation Xrotation Yrotation
				JOINT upperback
				{
					OFFSET 0 0 0 
					CHANNELS 3 Zrotation Xrotation Yrotation
					JOINT lclavicle_phantom
					{
						OFFSET 0 0 0.199349 
						CHANNELS 3 Zrotation Xrotation Yrotation
						JOINT lclavicle
						{
							OFFSET 0 0.164108 -0.0174105 
							CHANNELS 3 Zrotation Xrotation Yrotation
							JOINT lhumerus
							{
								OFFSET 0 0 -0.275026 
								CHANNELS 3 Zrotation Xrotation Yrotation
								JOINT lradius
								{
									OFFSET 0 0 -0.248775 
									CHANNELS 3 Zrotation Xrotation Yrotation
									End Site
									{
										OFFSET 0 0 -0.082925
									}
								}
							}
						}
					}
					JOINT rclavicle_phantom
					{
						OFFSET 0 0 0.199349 
						CHANNELS 3 Zrotation Xrotation Yrotation
						JOINT rclavicle
						{
							OFFSET 0 -0.165322 -0.0298984 
							CHANNELS 3 Zrotation Xrotation Yrotation
							JOINT rhumerus
							{
								OFFSET 0 0 -0.273337 
								CHANNELS 3 Zrotation Xrotation Yrotation
								JOINT rradius
								{
									OFFSET 0 0 -0.254845 
									CHANNELS 3 Zrotation Xrotation Yrotation
									End Site
									{
										OFFSET 0 0 -0.0849483
									}
								}
							}
						}
					}
					JOINT LowerNeck_phantom
					{
						OFFSET 0 0 0.199349 
						CHANNELS 3 Zrotation Xrotation Yrotation
						JOINT LowerNeck
						{
							OFFSET -0.0127292 -0.000602123 0.105365 
							CHANNELS 3 Zrotation Xrotation Yrotation
							End Site
							{
								OFFSET -0.00424307 -0.000200708 0.0351217
							}
						}
					}
				}
			}
		}
	}
MOTION
Frames:	20
Frame Time:	0.0166667
-0.0153905 0.893056 1.66533e-016 83.8159 -53.5768 80.3485 24.5553 -0.448197 6.047 25.3922 0.754538 1.58916 -3.30059 -8.52274 23.7374 4.37243e-006 1.14116e-006 9.66512 -2.27403 -12.1575 2.04252 -28.1065 -4.44984 8.26536 4.94743 8.66047 15.1064 8.8166e-008 1.52482e-007 28.1841 2.7608 -0.650816 5.16753 1.37388 0.788672 0.815399 -0 0 -0 -3.85667 -7.70633 -0.517931 8.72041 25.3736 1.92222 -4.50756 -7.43678 -121.345 1.15027e-005 -2.77462 -18.9346 7.77935 9.10837 -1.23892 -1.70297 -31.8734 5.62348 12.265 16.2045 -127.919 -1.09311e-005 -1.6938 -13.1351 -0.305382 4.38587 32.0622 4.25518 -6.07518 -73.8758 
-0.0140589 0.893231 0.002418 84.0308 -53.4816 80.5636 24.4932 -0.211308 5.86738 25.3588 0.742423 1.56601 -3.29533 -8.56999 23.8744 7.88169e-006 -2.612e-006 9.70901 -2.3301 -11.864 2.02508 -28.1513 -4.45185 8.25368 4.94024 8.62707 15.0476 1.97035e-006 -4.65002e-007 28.171 2.68459 -0.583083 5.17982 1.29261 0.747609 0.815163 -0 0 -0 -3.82161 -7.71258 -0.513622 8.67892 25.3389 1.93847 -4.46951 -7.37182 -121.35 5.86488e-006 -2.62866 -18.8866 7.75925 9.12124 -1.23741 -1.71758 -31.9231 5.64861 12.3284 16.279 -127.943 2.3486e-006 -1.82559 -13.2545 -0.293076 4.34708 32.0278 4.36291 -6.10131 -73.8189 
-0.0126116 0.893391 0.004964 84.2574 -53.3769 80.7814 24.3787 0.0373472 5.70042 25.3745 0.719703 1.51704 -3.28707 -8.61996 24.0335 8.98028e-006 -4.2951e-006 9.73941 -2.42152 -11.5535 2.0168 -28.1594 -4.44602 8.24028 4.93061 8.57986 14.9612 -3.024e-006 -1.79217e-007 28.165 2.61513 -0.525932 5.20816 1.23624 0.714952 0.807038 -0 0 -0 -3.82439 -7.7124 -0.513985 8.63834 25.3023 1.95227 -4.47849 -7.38938 -121.341 1.21283e-005 -2.94677 -18.9179 7.73411 9.13083 -1.23464 -1.76874 -31.952 5.63994 12.3049 16.25 -127.936 -1.54102e-006 -1.86837 -13.2366 -0.234578 4.29637 31.999 4.42931 -6.05998 -73.7643 
-0.0111273 0.893542 0.007564 84.4878 -53.2776 81.0096 24.3901 0.304275 5.49999 25.2787 0.713959 1.51146 -3.29055 -8.68969 24.1659 -7.06133e-006 8.34353e-007 9.78291 -2.49279 -11.2313 2.00427 -28.1776 -4.44109 8.22511 4.91194 8.51707 14.8748 -1.28277e-007 -6.3339e-007 28.1557 2.54246 -0.460376 5.20995 1.183 0.682796 0.805831 -0 0 -0 -3.80997 -7.71811 -0.51242 8.60766 25.2646 1.96495 -4.47533 -7.3848 -121.339 -3.07254e-006 -3.0208 -18.9232 7.71184 9.12736 -1.23058 -1.80345 -31.9694 5.63929 12.2744 16.2149 -127.923 1.58533e-006 -1.91587 -13.2379 -0.192448 4.24957 31.9675 4.49509 -6.05278 -73.6719 
-0.00958494 0.893682 0.010213 84.7055 -53.1822 81.2286 24.2575 0.553649 5.32499 25.3279 0.68989 1.45729 -3.28305 -8.74753 24.3342 -9.14619e-006 1.74646e-006 9.81837 -2.59575 -10.9155 1.96377 -28.1578 -4.44956 8.24729 4.89928 8.46029 14.774 4.08643e-008 -2.02209e-007 28.1397 2.47463 -0.406333 5.201 1.1486 0.651238 0.802079 -0 0 -0 -3.80167 -7.71373 -0.511011 8.56362 25.2122 1.993 -4.46478 -7.36795 -121.336 -1.65658e-005 -3.00449 -18.9327 7.69065 9.12418 -1.22673 -1.83902 -31.9937 5.64163 12.2463 16.1822 -127.912 2.15445e-006 -1.93711 -13.2108 -0.26895 4.31358 31.9228 4.54857 -6.24447 -73.4827 
-0.00798064 0.893816 0.012943 84.9303 -53.0896 81.4516 24.2711 0.830587 5.1185 25.2439 0.685901 1.45437 -3.28676 -8.82552 24.4789 1.29321e-006 -1.78083e-006 9.85809 -2.65943 -10.5848 1.92282 -28.1566 -4.46652 8.27866 4.87399 8.38467 14.6814 -1.06254e-006 -2.10466e-007 28.1088 2.41609 -0.359121 5.19266 1.12558 0.631523 0.79567 -0 0 -0 -3.80219 -7.71001 -0.510836 8.51962 25.1597 2.01999 -4.45611 -7.35489 -121.332 -2.38124e-006 -2.99111 -18.947 7.67505 9.12524 -1.22436 -1.87502 -32.0373 5.64116 12.2379 16.1711 -127.911 4.77615e-006 -1.94939 -13.181 -0.307053 4.33506 31.8951 4.59252 -6.35903 -73.3047 
-0.00633131 0.893939 0.015739 85.1544 -53.0046 81.6709 24.276 1.11312 4.91196 25.1742 0.681937 1.45054 -3.28927 -8.90431 24.6299 -8.8167e-006 3.0153e-007 9.89466 -2.70196 -10.2479 1.87214 -28.1652 -4.49757 8.33232 4.85214 8.3137 14.5833 -1.90489e-007 5.44105e-007 28.0792 2.37271 -0.310389 5.18921 1.10358 0.617599 0.789958 -0 0 -0 -3.79773 -7.71423 -0.510513 8.48636 25.1151 2.02761 -4.44139 -7.33225 -121.325 -1.70071e-005 -3.00979 -18.951 7.66424 9.12323 -1.22234 -1.90645 -32.0853 5.62901 12.2498 16.1831 -127.919 6.90009e-006 -1.96914 -13.1894 -0.275573 4.28152 31.8729 4.63854 -6.35234 -73.1489 
-0.00462437 0.894051 0.018568 85.3894 -52.9183 81.8901 24.3801 1.41877 4.68964 25.0077 0.690695 1.48031 -3.29905 -8.99403 24.7599 -2.49117e-006 -1.16013e-006 9.94386 -2.72218 -9.89784 1.83847 -28.1896 -4.52881 8.3808 4.82905 8.23975 14.4811 1.0257e-007 -2.89259e-007 28.0668 2.33447 -0.239152 5.18835 1.08207 0.591699 0.7863 -0 0 -0 -3.7936 -7.71891 -0.510263 8.46292 25.0721 2.02633 -4.41715 -7.29351 -121.319 4.49484e-006 -3.01059 -18.949 7.65639 9.11315 -1.21974 -1.92876 -32.1224 5.6111 12.2645 16.1973 -127.93 9.29185e-006 -1.9966 -13.2064 -0.330386 4.31801 31.8241 4.68025 -6.51321 -72.9004 
-0.00285655 0.894148 0.021387 85.6269 -52.8168 82.0942 24.3003 1.71701 4.51751 24.9985 0.676547 1.45062 -3.29474 -9.06313 24.9249 5.70934e-006 -5.86582e-006 9.97557 -2.78233 -9.54971 1.82059 -28.1931 -4.56079 8.4378 4.81889 8.18259 14.3607 -7.05841e-007 1.30475e-006 28.0727 2.29498 -0.171928 5.20237 1.06425 0.573282 0.78077 -0 0 -0 -3.80042 -7.7208 -0.511307 8.43878 25.027 2.02873 -4.39578 -7.26048 -121.31 2.53021e-007 -2.97032 -18.9718 7.64653 9.09699 -1.21601 -1.94996 -32.1479 5.58451 12.2753 16.2051 -127.942 -1.78806e-007 -2.02349 -13.2099 -0.442268 4.40761 31.757 4.72843 -6.77304 -72.5805 
-0.00102286 0.894229 0.024218 85.8758 -52.6975 82.2939 24.285 2.03604 4.34401 24.9104 0.667457 1.43689 -3.29539 -9.14278 25.081 -2.10283e-006 1.75258e-006 9.99481 -2.85748 -9.19325 1.82657 -28.1963 -4.58813 8.48641 4.80792 8.12413 14.2392 2.4004e-007 -3.35985e-007 28.073 2.25122 -0.104124 5.22111 1.04389 0.563115 0.779878 -0 0 -0 -3.81318 -7.72535 -0.513331 8.41691 24.9878 2.03438 -4.40185 -7.27363 -121.3 -2.29251e-006 -2.96839 -19.0019 7.63822 9.08422 -1.21298 -1.97253 -32.1774 5.54971 12.2963 16.2243 -127.959 1.05981e-006 -2.0209 -13.1988 -0.482646 4.43223 31.7138 4.77788 -6.91613 -72.2914 
0.000859452 0.894302 0.02705 86.1251 -52.5667 82.4864 24.332 2.36581 4.16401 24.7527 0.664124 1.44008 -3.29841 -9.22843 25.2334 5.17358e-006 -4.78124e-006 10.0086 -2.947 -8.83691 1.83933 -28.1963 -4.61617 8.53738 4.79782 8.0701 14.1253 -2.81631e-006 4.37219e-008 28.0585 2.20078 -0.0264892 5.2382 1.0246 0.543014 0.78206 -0 0 -0 -3.81838 -7.72956 -0.51431 8.39409 24.9546 2.03628 -4.42627 -7.31762 -121.289 6.55333e-006 -3.01143 -18.9874 7.62828 9.07963 -1.21078 -1.98761 -32.212 5.50488 12.3295 16.2602 -127.976 -3.19546e-006 -1.98183 -13.1827 -0.473468 4.40689 31.6986 4.83513 -6.97606 -72.033 
0.00278852 0.89437 0.029888 86.3805 -52.4221 82.681 24.4766 2.70988 3.96042 24.4955 0.672536 1.47569 -3.30753 -9.32522 25.371 -7.10613e-006 5.00858e-006 10.0393 -3.03497 -8.47476 1.85798 -28.2075 -4.64532 8.58642 4.78115 8.00912 14.0234 2.8513e-006 2.46984e-007 28.037 2.13967 0.0570624 5.25529 1.01673 0.524577 0.776935 -0 0 -0 -3.81839 -7.7349 -0.514664 8.36664 24.9246 2.03317 -4.44132 -7.34736 -121.273 -4.77839e-006 -3.10414 -18.9178 7.60663 9.07815 -1.20711 -1.97768 -32.2465 5.45978 12.365 16.3013 -127.991 9.40845e-006 -1.93578 -13.1672 -0.423959 4.35137 31.6989 4.88728 -6.98045 -71.7735 
0.00474823 0.894431 0.032722 86.6354 -52.2673 82.8727 24.4345 3.03978 3.79505 24.4081 0.659205 1.45232 -3.30259 -9.40237 25.5456 8.18237e-007 -1.11181e-006 10.0686 -3.12654 -8.11306 1.87677 -28.233 -4.68113 8.64237 4.77344 7.96262 13.918 1.84547e-006 -8.98538e-007 28.0264 2.08564 0.129518 5.272 1.00502 0.525518 0.766157 -0 0 -0 -3.81511 -7.74311 -0.514765 8.33198 24.8982 2.026 -4.42885 -7.33231 -121.253 4.70942e-006 -3.2165 -18.7961 7.58469 9.07964 -1.20378 -1.95423 -32.2837 5.41609 12.4084 16.3533 -128.005 5.21534e-006 -1.872 -13.1576 -0.446272 4.36627 31.6855 4.9445 -7.1294 -71.4361 
0.00675556 0.894482 0.035564 86.9126 -52.1005 83.0761 24.625 3.40524 3.57424 24.0914 0.674372 1.5078 -3.31796 -9.51318 25.6704 8.41984e-006 4.4757e-007 10.1128 -3.15587 -7.72731 1.93881 -28.3257 -4.7041 8.65095 4.75749 7.90747 13.8282 2.93659e-006 -9.48441e-008 28.0227 2.03823 0.209057 5.2903 0.980046 0.546751 0.76017 -0 0 -0 -3.81708 -7.75912 -0.516088 8.31469 24.879 2.01495 -4.40635 -7.29936 -121.237 -3.40549e-006 -3.3916 -18.6403 7.57011 9.07951 -1.20143 -1.92617 -32.3178 5.36656 12.4446 16.3966 -128.017 6.61561e-006 -1.785 -13.1291 -0.486603 4.40959 31.6612 5.00346 -7.35353 -71.0653 
0.00877421 0.894521 0.038347 87.1799 -51.9207 83.2613 24.5094 3.74388 3.42972 24.0565 0.656577 1.47043 -3.31428 -9.5977 25.8465 -1.4541e-005 -1.37597e-006 10.1446 -3.24231 -7.357 2.00686 -28.4033 -4.72875 8.66779 4.77084 7.89387 13.7132 -5.45064e-007 4.74254e-007 28.0362 1.93519 0.376654 5.25422 0.981885 0.486893 0.789967 -0 0 -0 -3.80222 -7.79054 -0.516142 8.29712 24.8714 2.04061 -4.37323 -7.24681 -121.227 -7.33069e-006 -3.55565 -18.4837 7.56142 9.06453 -1.19807 -1.84669 -32.3197 5.36109 12.4237 16.3726 -128.008 6.73223e-006 -1.74825 -13.0819 -0.470211 4.38787 31.6821 5.08244 -7.50205 -70.7395 
0.01082 0.894546 0.041111 87.4543 -51.7258 83.4474 24.5509 4.0994 3.24849 23.8594 0.657153 1.48543 -3.32047 -9.6936 25.9877 -7.02362e-007 -3.30659e-007 10.1825 -3.29279 -6.97437 2.11025 -28.5184 -4.73881 8.64497 4.76163 7.84375 13.6015 2.4565e-006 1.01019e-006 28.0408 1.83463 0.515804 5.24704 0.980977 0.456596 0.803785 -0 0 -0 -3.79016 -7.81114 -0.515853 8.28949 24.8679 2.05513 -4.32514 -7.16841 -121.22 1.19782e-006 -3.65558 -18.3872 7.54277 9.03461 -1.19117 -1.73529 -32.2732 5.32819 12.3694 16.3172 -127.975 2.96309e-006 -1.76595 -13.0219 -0.47 4.366 31.7074 5.18096 -7.66252 -70.4323 
0.0128514 0.894549 0.043853 87.7064 -51.529 83.6221 24.4329 4.42688 3.10139 23.8029 0.640268 1.45114 -3.30958 -9.75918 26.1629 1.1845e-005 -3.23693e-006 10.2045 -3.40224 -6.6115 2.17947 -28.5813 -4.76088 8.6622 4.75641 7.79233 13.4629 1.40798e-006 -5.71403e-007 28.0458 1.79406 0.550934 5.30118 0.944836 0.507475 0.781165 -0 0 -0 -3.79244 -7.81632 -0.516504 8.30337 24.8828 2.02662 -4.26915 -7.07492 -121.219 -2.34997e-007 -3.68674 -18.3402 7.50403 8.99353 -1.17964 -1.59563 -32.1759 5.20778 12.3036 16.2616 -127.914 2.06946e-006 -1.81931 -12.9535 -0.451286 4.32448 31.7073 5.29067 -7.78069 -70.1285 
0.0149029 0.894539 0.046586 87.966 -51.3276 83.7976 24.6786 4.78541 2.86849 23.3904 0.661806 1.52965 -3.31943 -9.85138 26.2735 -2.62278e-005 5.53165e-006 10.2408 -3.47816 -6.23777 2.26232 -28.6595 -4.77822 8.66544 4.72767 7.70941 13.3467 2.13929e-007 2.57044e-007 28.0369 1.77745 0.551236 5.3876 0.883954 0.595771 0.740877 -0 0 -0 -3.79654 -7.82464 -0.517611 8.34369 24.9311 1.9678 -4.22381 -6.99648 -121.229 -2.86181e-006 -3.71032 -18.2967 7.45981 8.94743 -1.16665 -1.43207 -32.0375 5.01088 12.2351 16.2072 -127.845 2.52749e-006 -1.8684 -12.8614 -0.451681 4.33784 31.6873 5.38497 -7.98811 -69.7817 
0.0169321 0.894517 0.049241 88.2099 -51.1244 83.9482 24.5848 5.11454 2.73578 23.3017 0.64416 1.49523 -3.30578 -9.91041 26.4479 -5.42146e-006 2.24998e-006 10.2661 -3.60465 -5.88643 2.32847 -28.706 -4.81326 8.71134 4.72587 7.66841 13.2207 7.30105e-008 1.1592e-007 28.0314 1.7077 0.641232 5.40893 0.856029 0.596249 0.733072 -0 0 -0 -3.79067 -7.86177 -0.519245 8.39599 25.021 1.9332 -4.17432 -6.9089 -121.247 9.5187e-006 -3.75228 -18.2083 7.43006 8.90611 -1.15662 -1.24403 -31.8839 4.8216 12.173 16.1469 -127.8 -6.27071e-006 -1.88858 -12.768 -0.528509 4.41301 31.7059 5.49341 -8.35174 -69.3891 
0.0189473 0.894485 0.05187 88.466 -50.9218 84.105 24.6115 5.4581 2.56542 23.1095 0.644564 1.51009 -3.30537 -9.99117 26.5884 -3.82029e-006 -4.50283e-007 10.305 -3.63687 -5.51545 2.42217 -28.8342 -4.84376 8.71988 4.71229 7.61639 13.1212 -4.15131e-007 -5.15012e-007 28.0162 1.63808 0.742107 5.42081 0.847922 0.610535 0.727923 -0 0 -0 -3.80389 -7.91972 -0.524878 8.46906 25.1391 1.87756 -4.13111 -6.8316 -121.266 1.48981e-005 -3.79198 -18.0338 7.40807 8.88032 -1.14985 -1.08386 -31.7433 4.60405 12.1531 16.1153 -127.806 3.20658e-006 -1.8717 -12.7034 -0.468487 4.33599 31.7668 5.59881 -8.45475 -69.123 
